<svg width="1031" height="696" viewBox="0 0 1031 696" fill="none" xmlns="http://www.w3.org/2000/svg">
<g clip-path="url(#clip0_169_4877)">
<path d="M663.748 420.38C820.084 420.38 946.819 415.877 946.819 410.323C946.819 404.769 820.084 400.266 663.748 400.266C507.412 400.266 380.677 404.769 380.677 410.323C380.677 415.877 507.412 420.38 663.748 420.38Z" fill="#A3A3A3"/>
<path d="M615.491 336.9C615.491 419.485 569.203 412.392 512.104 412.392C455.006 412.392 408.718 416.501 408.718 336.9C408.718 279.795 455.006 247.368 512.104 247.368C569.203 247.368 615.491 279.796 615.491 336.9Z" fill="#404040"/>
<path opacity="0.28" d="M518.267 255.246C518.267 255.246 432.253 247.368 425.579 351.978C425.579 351.978 418.853 414.299 512.105 412.392C512.105 412.392 591.775 415.442 595.685 363.717C599.305 315.819 595.371 260.322 518.267 255.246Z" fill="#A3A3A3"/>
<path d="M565.473 384.119C594.951 354.638 594.951 306.84 565.473 277.359C535.995 247.878 488.202 247.878 458.724 277.359C429.247 306.84 429.247 354.638 458.724 384.119C488.202 413.6 535.995 413.6 565.473 384.119Z" fill="#A3A3A3"/>
<path d="M561.257 379.902C588.406 352.75 588.406 308.727 561.257 281.575C534.107 254.423 490.089 254.423 462.94 281.575C435.791 308.727 435.791 352.75 462.94 379.902C490.089 407.055 534.107 407.055 561.257 379.902Z" fill="#D4D4D4"/>
<path d="M512.02 270.999H524.417C526.26 270.999 527.529 272.851 526.864 274.57L520.132 291.979L514.467 306.629C513.602 308.867 510.437 308.867 509.572 306.629L503.906 291.979L497.174 274.57C496.509 272.851 497.778 270.999 499.622 270.999H512.02Z" fill="#404040"/>
<path d="M512.019 389.947H499.622C497.779 389.947 496.51 388.096 497.175 386.376L503.907 368.967L509.572 354.317C510.437 352.08 513.602 352.08 514.467 354.317L520.133 368.967L526.865 386.376C527.53 388.096 526.261 389.947 524.417 389.947H512.019Z" fill="#404040"/>
<path d="M554.07 288.419L562.836 297.186C564.14 298.49 563.728 300.696 562.042 301.442L544.973 308.991L530.609 315.344C528.415 316.314 526.177 314.076 527.147 311.882L533.5 297.516L541.048 280.446C541.794 278.76 544 278.348 545.304 279.652L554.07 288.419Z" fill="#404040"/>
<path d="M469.97 372.528L461.203 363.761C459.9 362.457 460.312 360.25 461.998 359.504L479.066 351.955L493.43 345.602C495.624 344.632 497.862 346.871 496.892 349.064L490.539 363.43L482.991 380.5C482.245 382.187 480.039 382.599 478.735 381.295L469.97 372.528Z" fill="#404040"/>
<path d="M571.487 330.473V342.872C571.487 344.716 569.636 345.985 567.916 345.319L550.51 338.587L535.861 332.921C533.624 332.056 533.624 328.89 535.861 328.025L550.51 322.359L567.916 315.627C569.636 314.961 571.487 316.23 571.487 318.074V330.473Z" fill="#404040"/>
<path d="M452.552 330.473V318.075C452.552 316.231 454.403 314.962 456.123 315.627L473.53 322.36L488.178 328.026C490.415 328.891 490.415 332.056 488.178 332.921L473.53 338.587L456.123 345.32C454.403 345.985 452.552 344.716 452.552 342.872V330.473Z" fill="#404040"/>
<path d="M554.069 372.528L545.303 381.295C543.999 382.599 541.793 382.187 541.047 380.501L533.499 363.43L527.146 349.064C526.176 346.871 528.415 344.632 530.608 345.603L544.972 351.956L562.041 359.505C563.727 360.251 564.139 362.457 562.835 363.761L554.069 372.528Z" fill="#404040"/>
<path d="M469.969 288.419L478.736 279.651C480.04 278.347 482.246 278.76 482.991 280.446L490.54 297.516L496.892 311.882C497.862 314.076 495.624 316.314 493.43 315.344L479.066 308.991L461.998 301.442C460.311 300.696 459.9 298.489 461.203 297.185L469.969 288.419Z" fill="#404040"/>
<path d="M526.629 334.206C528.522 326.188 523.557 318.153 515.54 316.26C507.522 314.367 499.488 319.332 497.595 327.35C495.702 335.368 500.667 343.403 508.684 345.296C516.702 347.19 524.736 342.225 526.629 334.206Z" fill="#404040"/>
<path d="M512.104 336.9C515.508 336.9 518.266 334.141 518.266 330.737C518.266 327.334 515.508 324.575 512.104 324.575C508.701 324.575 505.942 327.334 505.942 330.737C505.942 334.141 508.701 336.9 512.104 336.9Z" fill="#701C1C"/>
<path opacity="0.28" d="M455 268.671C455 268.671 411.283 302.509 419.218 349.51C419.218 349.51 402.285 301.582 455 268.671Z" fill="#A3A3A3"/>
<path opacity="0.28" d="M590.31 285.977C590.31 285.977 606.518 312.71 605.381 359.35C605.381 359.35 613.342 310.435 590.31 285.977Z" fill="#A3A3A3"/>
<path d="M713.56 373.788H632.633V332.974L716.333 221.847H756.456V332.154H784.184V373.788H756.456V412.544H713.56V373.788ZM713.56 289.18L681.936 332.154H713.56V289.18Z" fill="#701C1C"/>
<path d="M313.416 373.788H232.488L238.175 332.974L321.875 221.847H356.311V332.154H384.039V373.788H356.311V412.544H313.416V373.788ZM313.416 289.18L281.792 332.154H313.416V289.18Z" fill="#701C1C"/>
<path d="M827.525 256.114H822.695V304.442H827.525V256.114Z" fill="#D4D4D4"/>
<path d="M850.367 251.721H799.151V256.115H850.367V251.721Z" fill="#404040"/>
<path d="M800.301 257.335H799.19C798.823 257.335 798.525 257.038 798.525 256.671V251.165C798.525 250.797 798.823 250.5 799.19 250.5H800.301C800.668 250.5 800.966 250.797 800.966 251.165V256.671C800.966 257.038 800.668 257.335 800.301 257.335Z" fill="#404040"/>
<path d="M850.923 257.335H849.811C849.444 257.335 849.146 257.038 849.146 256.671V251.165C849.146 250.797 849.444 250.5 849.811 250.5H850.923C851.29 250.5 851.588 250.797 851.588 251.165V256.671C851.588 257.038 851.29 257.335 850.923 257.335Z" fill="#404040"/>
<path d="M830.717 250.951H819.333V256.887H830.717V250.951Z" fill="#D4D4D4"/>
<path opacity="0.33" d="M822.695 256.887H827.525L822.695 259.575V256.887Z" fill="#404040"/>
<path d="M835.449 403.403H814.771V304.627C814.771 300.661 817.985 297.446 821.95 297.446H828.269C832.235 297.446 835.449 300.661 835.449 304.627V403.403Z" fill="#D3B9B9"/>
<mask id="mask0_169_4877" style="mask-type:luminance" maskUnits="userSpaceOnUse" x="814" y="297" width="22" height="107">
<path d="M835.449 403.403H814.771V304.627C814.771 300.661 817.985 297.446 821.95 297.446H828.269C832.235 297.446 835.449 300.661 835.449 304.627V403.403Z" fill="white"/>
</mask>
<g mask="url(#mask0_169_4877)">
<path d="M839.253 294.39H825.025V407.392H839.253V294.39Z" fill="#9F6767"/>
</g>
<path d="M842.943 411.836H807.671C807.671 406.927 811.65 402.948 816.559 402.948H834.056C838.964 402.948 842.943 406.927 842.943 411.836Z" fill="#404040"/>
<path d="M844.835 413.807H805.679C805.322 413.807 805.034 413.518 805.034 413.162V411.97C805.034 411.614 805.323 411.325 805.679 411.325H844.835C845.192 411.325 845.48 411.614 845.48 411.97V413.162C845.48 413.519 845.192 413.807 844.835 413.807Z" fill="#404040"/>
<path d="M829.98 298.631H820.24C819.324 298.631 818.583 297.888 818.583 296.973V296.048C818.583 295.133 819.325 294.39 820.24 294.39H829.98C830.895 294.39 831.638 295.133 831.638 296.048V296.973C831.638 297.888 830.896 298.631 829.98 298.631Z" fill="#404040"/>
<path opacity="0.32" d="M819.733 356.114C818.597 356.114 817.676 355.193 817.676 354.057V340.076C817.676 338.94 818.597 338.02 819.733 338.02C820.869 338.02 821.789 338.94 821.789 340.076V354.057C821.789 355.193 820.869 356.114 819.733 356.114Z" fill="#701C1C"/>
<path opacity="0.32" d="M819.733 362.83C818.597 362.83 817.676 361.909 817.676 360.773V359.344C817.676 358.208 818.597 357.288 819.733 357.288C820.869 357.288 821.789 358.208 821.789 359.344V360.773C821.789 361.909 820.869 362.83 819.733 362.83Z" fill="#701C1C"/>
<path d="M842.426 322.963C843.977 313.408 837.488 304.404 827.934 302.853C818.379 301.303 809.377 307.792 807.826 317.347C806.276 326.903 812.764 335.906 822.318 337.457C831.873 339.008 840.875 332.519 842.426 322.963Z" fill="#404040"/>
<path d="M831.011 334.352C838.852 331.104 842.576 322.113 839.328 314.271C836.08 306.429 827.09 302.705 819.249 305.953C811.407 309.202 807.684 318.192 810.932 326.034C814.18 333.877 823.17 337.601 831.011 334.352Z" fill="#701C1C"/>
<mask id="mask1_169_4877" style="mask-type:luminance" maskUnits="userSpaceOnUse" x="809" y="304" width="32" height="32">
<path d="M831.011 334.352C838.852 331.104 842.576 322.113 839.328 314.271C836.08 306.429 827.09 302.705 819.249 305.953C811.407 309.202 807.684 318.192 810.932 326.034C814.18 333.877 823.17 337.601 831.011 334.352Z" fill="white"/>
</mask>
<g mask="url(#mask1_169_4877)">
<path d="M834.545 306.817C834.545 306.817 835.108 327.494 815.968 333.713C815.968 333.713 829.699 342.523 840.475 330.715C851.251 318.908 834.545 306.817 834.545 306.817Z" fill="#D4D4D4"/>
</g>
<path d="M825.256 322.58C826.592 322.58 827.676 321.496 827.676 320.16C827.676 318.824 826.592 317.74 825.256 317.74C823.92 317.74 822.837 318.824 822.837 320.16C822.837 321.496 823.92 322.58 825.256 322.58Z" fill="#404040"/>
<path d="M825.691 306.817H824.821V310.975H825.691V306.817Z" fill="#404040"/>
<path d="M825.691 329.554H824.821V333.712H825.691V329.554Z" fill="#404040"/>
<path d="M838.703 320.7V319.829H834.545V320.7H838.703Z" fill="#404040"/>
<path d="M815.968 320.7V319.83H811.81V320.7H815.968Z" fill="#404040"/>
<path d="M835.068 311.056L834.453 310.44L831.513 313.38L832.128 313.996L835.068 311.056Z" fill="#404040"/>
<path d="M818.993 327.133L818.377 326.518L815.438 329.458L816.053 330.073L818.993 327.133Z" fill="#404040"/>
<path d="M834.464 330.078L835.08 329.462L832.14 326.522L831.524 327.138L834.464 330.078Z" fill="#404040"/>
<path d="M818.388 314L819.003 313.385L816.064 310.445L815.448 311.06L818.388 314Z" fill="#404040"/>
<path d="M830.866 314.654L825.621 318.777L825.256 320.265L826.743 319.899L830.866 314.654Z" fill="#FE9A00"/>
<path d="M515.444 393.587H508.765V400.266H515.444V393.587Z" fill="#404040"/>
<path d="M720.564 403.716C707.01 403.716 694.206 399.96 681.421 392.234C670.112 385.401 660.215 376.499 649.738 367.074C629.503 348.873 608.58 330.052 577.024 327.816C559.964 326.605 546.007 330.893 535.539 340.556C514.977 359.535 514.426 393.268 514.423 393.607L509.786 393.567C509.789 393.201 509.892 384.464 512.692 373.14C515.292 362.623 520.817 347.845 532.373 337.167C543.821 326.588 558.953 321.885 577.352 323.189C610.497 325.538 632.022 344.901 652.839 363.625C673.107 381.857 692.251 399.077 720.564 399.077C753.47 399.077 768.254 392.339 780.133 386.925C789.257 382.766 797.138 379.174 809.96 380.178L809.599 384.802C797.967 383.892 790.947 387.092 782.056 391.145C769.768 396.746 754.477 403.716 720.564 403.716Z" fill="#D3B9B9"/>
<path d="M814.692 377.577H804.867V387.404H814.692V377.577Z" fill="#404040"/>
</g>
<defs>
<clipPath id="clip0_169_4877">
<rect width="1031" height="696" fill="white"/>
</clipPath>
</defs>
</svg>
