<svg width="836" height="589" viewBox="0 0 836 589" fill="none" xmlns="http://www.w3.org/2000/svg">
<g clip-path="url(#clip0_149_1195)">
<path d="M426.962 587.752C452.106 587.752 472.49 567.373 472.49 542.236C472.49 517.098 452.106 496.719 426.962 496.719C401.818 496.719 381.435 517.098 381.435 542.236C381.435 567.373 401.818 587.752 426.962 587.752Z" fill="#D3B9B9"/>
<path d="M698.946 585.195C724.417 577.547 751.495 569.573 771.695 551.393C789.745 535.148 801.931 510.34 794.453 485.977C786.991 461.664 764.638 445.451 741.56 437.388C728.471 432.815 714.777 430.278 701.089 428.285C686.208 426.118 671.262 424.343 656.323 422.635C595.833 415.718 535.115 411.492 474.17 409.958C444.097 409.201 414.03 409.219 383.953 409.656C357.093 410.046 328.803 410.036 303.885 398.623C284.508 389.747 266.921 373.6 261.522 352.381C255.289 327.886 266.785 302.942 283.276 285.203C291.968 275.852 302.127 267.982 312.608 260.745C323.977 252.895 335.743 245.6 347.764 238.791C371.439 225.386 396.191 213.978 421.762 204.685C434.377 200.099 447.179 196.143 460.092 192.493C470.996 189.411 481.934 186.325 492.472 182.126C512.844 174.008 532.221 160.258 537.4 137.716C542.31 116.352 534.032 93.1593 519.521 77.2881C502.732 58.9263 477.418 50.8771 453.15 49.5747C425.904 48.1126 399.286 54.9298 373.678 63.5817C346.364 72.8096 319.64 83.42 291.749 90.8945C264.092 98.2992 235.9 103.538 207.429 106.565C193.491 108.048 179.132 109.724 165.112 108.588C153.361 107.636 141.671 104.181 133.011 95.8436C125.585 88.6948 121.162 78.87 122.683 68.5019C122.959 66.6187 125.82 67.4193 125.546 69.291C123.695 81.912 132.276 93.5418 142.85 99.4992C155.072 106.384 169.943 106.394 183.55 105.606C213.052 103.825 242.356 99.5898 271.155 92.9452C299.454 86.4833 326.742 77.2458 353.999 67.378C379.887 58.0061 406.353 48.859 434.009 46.8291C458.006 45.0678 483.25 48.5629 504.155 61.1005C522.529 72.1194 536.039 90.4953 540.344 111.582C544.551 132.188 538.725 152.927 523.123 167.307C506.969 182.195 484.82 188.56 464.178 194.422C437.998 201.858 412.379 210.549 387.581 221.834C362.445 233.24 338.339 246.79 315.528 262.331C293.511 277.374 271.782 296.301 264.818 323.136C261.574 335.636 262.173 348.895 267.601 360.701C272.427 371.2 280.375 380.031 289.634 386.842C311.725 403.094 339.568 406.431 366.253 406.762C396.223 407.135 426.195 406.124 456.175 406.616C517.273 407.619 578.247 411.337 639.095 417.77C654.342 419.384 669.57 421.167 684.779 423.12C698.458 424.878 712.184 426.624 725.633 429.745C749.547 435.294 772.818 445.964 787.681 466.235C794.278 475.021 798.365 485.433 799.505 496.36C800.546 507.763 797.754 519.187 792.597 529.331C781.183 551.782 759.804 566.063 737.1 575.445C724.939 580.47 712.325 584.277 699.736 588.057C697.902 588.608 697.118 585.744 698.946 585.195Z" fill="#F5F5F5"/>
<path d="M124.6 92.5166C137.719 92.5166 148.353 81.8844 148.353 68.769C148.353 55.6536 137.719 45.0215 124.6 45.0215C111.481 45.0215 100.846 55.6536 100.846 68.769C100.846 81.8844 111.481 92.5166 124.6 92.5166Z" fill="#F5F5F5"/>
<path d="M289.39 137.538C302.508 137.538 313.143 126.906 313.143 113.79C313.143 100.675 302.508 90.0427 289.39 90.0427C276.271 90.0427 265.636 100.675 265.636 113.79C265.636 126.906 276.271 137.538 289.39 137.538Z" fill="#F5F5F5"/>
<path d="M428.942 47.4951C442.06 47.4951 452.695 36.863 452.695 23.7475C452.695 10.6321 442.06 0 428.942 0C415.823 0 405.188 10.6321 405.188 23.7475C405.188 36.863 415.823 47.4951 428.942 47.4951Z" fill="#F5F5F5"/>
<path d="M516.038 148.422C529.157 148.422 539.791 137.79 539.791 124.675C539.791 111.559 529.157 100.927 516.038 100.927C502.919 100.927 492.284 111.559 492.284 124.675C492.284 137.79 502.919 148.422 516.038 148.422Z" fill="#F5F5F5"/>
<path d="M398.26 265.181C411.379 265.181 422.013 254.549 422.013 241.433C422.013 228.318 411.379 217.686 398.26 217.686C385.141 217.686 374.506 228.318 374.506 241.433C374.506 254.549 385.141 265.181 398.26 265.181Z" fill="#F5F5F5"/>
<path d="M248.811 321.581C261.93 321.581 272.564 310.949 272.564 297.834C272.564 284.718 261.93 274.086 248.811 274.086C235.692 274.086 225.057 284.718 225.057 297.834C225.057 310.949 235.692 321.581 248.811 321.581Z" fill="#F5F5F5"/>
<path d="M407.168 409.645C420.286 409.645 430.921 399.013 430.921 385.897C430.921 372.782 420.286 362.15 407.168 362.15C394.049 362.15 383.414 372.782 383.414 385.897C383.414 399.013 394.049 409.645 407.168 409.645Z" fill="#F5F5F5"/>
<path d="M577.401 459.119C590.52 459.119 601.155 448.487 601.155 435.372C601.155 422.256 590.52 411.624 577.401 411.624C564.282 411.624 553.648 422.256 553.648 435.372C553.648 448.487 564.282 459.119 577.401 459.119Z" fill="#F5F5F5"/>
<path d="M776.337 448.235C789.455 448.235 800.09 437.603 800.09 424.487C800.09 411.372 789.455 400.74 776.337 400.74C763.218 400.74 752.583 411.372 752.583 424.487C752.583 437.603 763.218 448.235 776.337 448.235Z" fill="#F5F5F5"/>
<path d="M422.085 67.2881C350.932 67.7906 292.672 125.598 291.661 196.728C291.652 197.385 291.648 202.003 291.648 208.042C291.649 216.898 295.167 225.39 301.43 231.652C307.694 237.914 316.188 241.432 325.046 241.433C329.436 241.432 333.784 240.566 337.84 238.885C341.896 237.204 345.581 234.74 348.684 231.634C351.787 228.528 354.247 224.842 355.925 220.785C357.602 216.728 358.464 212.381 358.46 207.991C358.457 203.883 358.455 201.039 358.455 200.865C358.452 189.872 361.312 179.067 366.754 169.514C372.195 159.962 380.03 151.989 389.488 146.382C398.945 140.775 409.7 137.725 420.695 137.534C431.689 137.342 442.543 140.016 452.191 145.29C461.838 150.565 469.946 158.26 475.717 167.617C481.487 176.975 484.722 187.673 485.103 198.66C485.483 209.646 482.997 220.542 477.887 230.277C472.778 240.011 465.222 248.248 455.963 254.177L455.975 254.191C455.975 254.191 408.439 284.786 393.947 326.755L393.96 326.758C391.411 335.356 390.12 344.277 390.126 353.245C390.126 356.931 390.343 389.184 390.762 415.362C390.908 424.394 394.601 433.007 401.043 439.342C407.484 445.677 416.159 449.227 425.195 449.224C429.735 449.224 434.23 448.326 438.422 446.583C442.614 444.839 446.42 442.284 449.621 439.064C452.821 435.845 455.353 432.024 457.071 427.823C458.789 423.621 459.659 419.121 459.631 414.582C459.486 390.608 459.407 362.692 459.407 360.666C459.407 334.895 484.274 309.218 504.701 292.473C528.222 273.191 545.149 246.915 551.947 217.274C553.452 211.171 554.281 204.922 554.421 198.638C554.421 181.309 550.991 164.151 544.329 148.152C537.666 132.154 527.904 117.632 515.602 105.422C503.301 93.213 488.705 83.5577 472.655 77.0128C456.605 70.468 439.419 67.1629 422.085 67.2881Z" fill="#D3B9B9"/>
<path d="M834.822 589H1.17846C0.866503 588.999 0.567641 588.875 0.347375 588.654C0.127109 588.433 0.00341034 588.134 0.00341034 587.822C0.00341034 587.51 0.127109 587.211 0.347375 586.99C0.567641 586.769 0.866503 586.645 1.17846 586.644H834.822C835.134 586.644 835.434 586.768 835.655 586.989C835.876 587.21 836 587.51 836 587.822C836 588.134 835.876 588.434 835.655 588.655C835.434 588.876 835.134 589 834.822 589Z" fill="#F1E8E8"/>
<path d="M621.994 270.124C638.393 270.124 651.686 256.834 651.686 240.44C651.686 224.046 638.393 210.755 621.994 210.755C605.596 210.755 592.302 224.046 592.302 240.44C592.302 256.834 605.596 270.124 621.994 270.124Z" fill="#2F0C0C"/>
<path d="M567.127 576.006H554.994L549.221 529.215H567.13L567.127 576.006Z" fill="#A0616A"/>
<path d="M546.326 572.539H569.727V587.269H531.592C531.592 585.335 531.973 583.419 532.714 581.632C533.454 579.845 534.54 578.221 535.908 576.853C537.276 575.486 538.9 574.401 540.688 573.66C542.475 572.92 544.391 572.539 546.326 572.539Z" fill="#2F0C0C"/>
<path d="M661.151 576.006H649.018L643.245 529.215H661.154L661.151 576.006Z" fill="#A0616A"/>
<path d="M640.35 572.539H663.751V587.269H625.617C625.617 585.335 625.998 583.419 626.738 581.632C627.479 579.845 628.564 578.221 629.932 576.853C631.3 575.486 632.924 574.401 634.712 573.66C636.5 572.92 638.416 572.539 640.35 572.539Z" fill="#2F0C0C"/>
<path d="M617.482 270.298C630.907 270.298 641.791 259.417 641.791 245.995C641.791 232.573 630.907 221.692 617.482 221.692C604.057 221.692 593.173 232.573 593.173 245.995C593.173 259.417 604.057 270.298 617.482 270.298Z" fill="#A0616A"/>
<path d="M631.971 348.699L642.848 323.715C645.489 317.853 646.247 311.317 645.015 305.008C643.782 298.698 640.622 292.926 635.969 288.489C635.014 287.545 633.999 286.662 632.931 285.847C627.564 281.65 620.95 279.362 614.136 279.346C609.554 279.364 605.031 280.37 600.874 282.295C600.517 282.453 600.171 282.621 599.814 282.79C599.131 283.116 598.459 283.472 597.805 283.838C593.545 286.284 589.918 289.697 587.219 293.801C584.52 297.906 582.824 302.587 582.266 307.467L577.466 347.68C576.259 350.836 533.186 464.824 548.25 551.849C548.41 552.779 548.863 553.632 549.544 554.286C550.224 554.939 551.095 555.358 552.03 555.481L567.302 557.559C568.417 557.711 569.549 557.436 570.469 556.787C571.389 556.139 572.029 555.167 572.26 554.066L597.885 431.954C598.044 431.195 598.454 430.512 599.048 430.013C599.641 429.515 600.385 429.229 601.16 429.203C601.935 429.177 602.697 429.411 603.323 429.869C603.949 430.326 604.404 430.98 604.615 431.726L640.819 560.141C641.077 561.074 641.634 561.897 642.404 562.483C643.175 563.069 644.116 563.387 645.085 563.387C645.374 563.385 645.662 563.358 645.946 563.307L664.602 559.716C665.687 559.513 666.656 558.913 667.321 558.032C667.986 557.152 668.297 556.055 668.195 554.956C665.453 524.391 650.884 371.289 631.971 348.699Z" fill="#2F0C0C"/>
<path d="M523.012 266.22C522.843 267.664 522.994 269.129 523.452 270.509C523.911 271.89 524.666 273.153 525.666 274.21C526.666 275.267 527.885 276.092 529.238 276.626C530.591 277.161 532.045 277.393 533.498 277.305L547.085 309.951L557.364 294.718L542.885 266.053C542.576 263.623 541.386 261.392 539.541 259.781C537.696 258.17 535.324 257.291 532.874 257.312C530.425 257.332 528.068 258.25 526.25 259.892C524.432 261.534 523.28 263.785 523.012 266.22Z" fill="#A0616A"/>
<path d="M616.134 381.57C617.579 381.397 618.968 380.91 620.204 380.143C621.44 379.375 622.493 378.346 623.288 377.128C624.083 375.91 624.601 374.532 624.806 373.092C625.011 371.652 624.898 370.184 624.474 368.793L653.063 347.975L635.851 341.532L611.342 362.288C609.05 363.155 607.157 364.831 606.02 367C604.882 369.17 604.581 371.68 605.171 374.057C605.762 376.434 607.204 378.511 609.225 379.896C611.245 381.281 613.704 381.876 616.134 381.57Z" fill="#A0616A"/>
<path d="M569.529 331.715C568.433 331.714 567.34 331.606 566.265 331.393C563.665 330.898 561.226 329.771 559.164 328.112C557.102 326.453 555.479 324.312 554.44 321.878L535.403 298.671C535.001 298.181 534.708 297.61 534.544 296.997C534.38 296.384 534.35 295.743 534.454 295.117C534.558 294.491 534.795 293.894 535.148 293.367C535.501 292.84 535.963 292.395 536.503 292.061L550.047 283.679C550.547 283.37 551.103 283.162 551.684 283.069C552.265 282.976 552.858 282.998 553.43 283.135C554.002 283.272 554.541 283.521 555.016 283.868C555.491 284.214 555.893 284.651 556.198 285.154L569.615 307.253L595.31 288.268C597.356 287.196 599.72 286.895 601.969 287.421C604.218 287.947 606.203 289.264 607.561 291.132C608.919 293 609.56 295.295 609.366 297.596C609.172 299.897 608.156 302.052 606.504 303.666L580.858 327.054C577.845 330.041 573.773 331.716 569.529 331.715Z" fill="#2F0C0C"/>
<path d="M638.959 366.616C638.924 366.616 638.889 366.616 638.854 366.615C638.23 366.6 637.616 366.454 637.051 366.186C636.487 365.918 635.985 365.535 635.578 365.061L623.536 351.017C623.126 350.539 622.822 349.979 622.645 349.375C622.467 348.77 622.42 348.135 622.506 347.511C622.592 346.887 622.809 346.288 623.144 345.754C623.479 345.221 623.923 344.764 624.447 344.414L646.995 329.387L626.568 304.835C625.38 302.855 624.944 300.513 625.34 298.238C625.736 295.963 626.938 293.906 628.726 292.443C630.514 290.981 632.768 290.21 635.077 290.272C637.386 290.334 639.596 291.224 641.303 292.781L666.129 317.036C668.082 318.82 669.574 321.052 670.475 323.54C671.376 326.027 671.66 328.696 671.303 331.318C670.945 333.939 669.956 336.435 668.421 338.59C666.887 340.746 664.852 342.497 662.491 343.693L642.2 365.218C641.784 365.659 641.281 366.011 640.724 366.251C640.167 366.491 639.566 366.616 638.959 366.616Z" fill="#2F0C0C"/>
<path d="M611.301 314.867C611.108 314.867 610.915 314.855 610.723 314.83C609.885 314.729 609.093 314.388 608.442 313.85C607.791 313.312 607.308 312.598 607.051 311.794L598.002 284.059C597.776 283.358 597.811 282.599 598.101 281.921C598.391 281.244 598.916 280.694 599.58 280.374L599.874 280.235C600.14 280.109 600.404 279.984 600.673 279.864C604.892 277.907 609.485 276.887 614.136 276.873C620.174 276.884 626.077 278.657 631.121 281.975C631.797 282.425 632.27 283.122 632.437 283.917C632.604 284.712 632.451 285.541 632.013 286.224L615.039 312.809C614.641 313.441 614.09 313.961 613.436 314.32C612.782 314.68 612.048 314.868 611.301 314.867Z" fill="#E6E6E6"/>
<path d="M645.404 227.188C650.769 227.188 655.119 222.839 655.119 217.474C655.119 212.11 650.769 207.761 645.404 207.761C640.038 207.761 635.688 212.11 635.688 217.474C635.688 222.839 640.038 227.188 645.404 227.188Z" fill="#2F0C0C"/>
<path d="M612.097 206.798C605.272 206.798 598.727 209.508 593.901 214.333C589.075 219.157 586.364 225.701 586.364 232.524V243.408H599.754L606.159 232.524L608.08 243.408H648.717L637.83 232.524C637.83 225.701 635.119 219.157 630.293 214.333C625.467 209.508 618.922 206.798 612.097 206.798Z" fill="#2F0C0C"/>
<path d="M650.397 210.821C651.472 207.462 653.696 204.589 656.679 202.708C659.663 200.827 663.214 200.057 666.709 200.535C672.9 201.569 677.796 206.545 680.713 212.103C683.63 217.66 684.977 223.88 686.938 229.842C688.899 235.804 691.68 241.798 696.63 245.658C701.581 249.517 709.177 250.564 714.039 246.594C713.484 250.731 711.641 254.59 708.772 257.623C705.903 260.656 702.153 262.711 698.052 263.497C693.951 264.282 689.706 263.759 685.919 262.001C682.132 260.243 678.993 257.339 676.947 253.7C674.382 249.136 673.719 243.788 672.958 238.609C672.198 233.43 671.209 228.071 668.146 223.826C665.083 219.58 659.35 216.807 654.484 218.741L650.397 210.821Z" fill="#2F0C0C"/>
<path d="M334.476 225.64C325.618 225.639 317.124 222.12 310.86 215.858C304.597 209.596 301.079 201.104 301.078 192.249C301.078 186.209 301.082 181.591 301.091 180.935C301.372 160.248 306.584 139.926 316.292 121.656C300.341 143.487 291.571 169.734 291.194 196.766C291.185 197.423 291.18 202.041 291.181 208.08C291.181 216.936 294.7 225.428 300.963 231.69C307.226 237.952 315.721 241.47 324.578 241.471C331.857 241.468 338.935 239.091 344.739 234.699C350.542 230.307 354.754 224.142 356.732 217.139C350.617 222.622 342.69 225.649 334.476 225.64Z" fill="#F1E8E8"/>
<path d="M424.349 137.646C434.589 138.135 444.557 141.101 453.398 146.29C462.239 151.479 469.688 158.735 475.105 167.436C480.523 176.137 483.747 186.023 484.502 196.244C485.256 206.465 483.518 216.717 479.437 226.118C485.34 219.187 489.679 211.064 492.158 202.304C494.637 193.543 495.198 184.352 493.801 175.355C492.405 166.359 489.085 157.769 484.067 150.172C479.049 142.575 472.452 136.149 464.725 131.332C456.997 126.515 448.322 123.42 439.29 122.259C430.258 121.097 421.082 121.897 412.387 124.602C403.692 127.308 395.683 131.856 388.906 137.937C382.128 144.017 376.742 151.487 373.114 159.838C379.384 152.464 387.265 146.628 396.148 142.78C405.031 138.932 414.679 137.176 424.349 137.646Z" fill="#F1E8E8"/>
<path d="M434.624 433.431C425.588 433.433 416.914 429.883 410.472 423.548C404.031 417.213 400.338 408.601 400.192 399.568C399.773 373.39 399.556 341.137 399.556 337.451C399.55 328.484 400.841 319.562 403.389 310.965L403.377 310.962C404.882 306.646 406.7 302.446 408.815 298.394C402.321 307.047 397.152 316.618 393.48 326.793L393.492 326.796C390.944 335.394 389.653 344.315 389.658 353.283C389.658 356.969 389.875 389.222 390.294 415.4C390.441 424.432 394.133 433.045 400.575 439.38C407.017 445.715 415.691 449.264 424.727 449.262C432.177 449.261 439.426 446.845 445.387 442.376C451.347 437.907 455.698 431.627 457.786 424.477C451.455 430.249 443.192 433.443 434.624 433.431Z" fill="#F1E8E8"/>
<path d="M125.241 576.457L137.374 576.456L143.148 529.665L125.238 529.666L125.241 576.457Z" fill="#FFB8B8"/>
<path d="M160.776 587.719L122.641 587.721L122.641 572.991L146.042 572.99C149.949 572.99 153.697 574.541 156.46 577.304C159.224 580.066 160.776 583.813 160.776 587.719Z" fill="#2F0C0C"/>
<path d="M81.6932 576.457L93.8263 576.456L99.5994 529.665L81.6903 529.666L81.6932 576.457Z" fill="#FFB8B8"/>
<path d="M117.228 587.719L79.0932 587.721L79.0925 572.991L102.494 572.99C106.401 572.99 110.149 574.541 112.912 577.304C115.675 580.066 117.228 583.813 117.228 587.719Z" fill="#2F0C0C"/>
<path d="M92.2965 562.066L80.4445 561.443C79.8334 561.411 79.2347 561.258 78.6831 560.993C78.1316 560.728 77.6381 560.356 77.2314 559.899C76.8246 559.442 76.5126 558.908 76.3135 558.33C76.1144 557.751 76.0321 557.139 76.0714 556.528L90.237 399.729L155.471 417.328L161.756 415.614L142.102 554.423C141.934 555.467 141.416 556.423 140.631 557.132C139.847 557.842 138.844 558.263 137.788 558.326L125.012 558.921C124.373 558.956 123.734 558.859 123.135 558.635C122.535 558.411 121.989 558.065 121.53 557.619C121.072 557.173 120.711 556.637 120.47 556.044C120.229 555.451 120.114 554.815 120.131 554.176L122.446 470.865C122.457 470.48 122.323 470.105 122.071 469.813C121.819 469.522 121.466 469.335 121.084 469.29C120.701 469.246 120.315 469.346 120.002 469.572C119.69 469.797 119.473 470.131 119.395 470.509L97.0694 558.387C96.8587 559.43 96.2927 560.367 95.4681 561.039C94.6435 561.711 93.6112 562.077 92.5472 562.073C92.4642 562.073 92.3806 562.071 92.2965 562.066Z" fill="#2F0C0C"/>
<path d="M127.42 271.434C140.845 271.434 151.729 260.554 151.729 247.132C151.729 233.71 140.845 222.829 127.42 222.829C113.994 222.829 103.111 233.71 103.111 247.132C103.111 260.554 113.994 271.434 127.42 271.434Z" fill="#FFB8B8"/>
<path d="M86.9473 318.531L89.6202 376.186L90.5864 397.161C90.6249 398.075 90.935 398.955 91.477 399.691C92.0191 400.427 92.7684 400.985 93.6291 401.293L156.315 423.995C156.821 424.183 157.358 424.277 157.898 424.272C158.515 424.275 159.127 424.154 159.696 423.915C160.266 423.677 160.781 423.326 161.212 422.884C161.643 422.442 161.98 421.917 162.204 421.342C162.427 420.766 162.533 420.152 162.514 419.535L159.944 315.87C159.775 307.364 156.643 299.185 151.089 292.74C145.534 286.296 137.905 281.991 129.516 280.568C128.909 280.475 128.292 280.383 127.676 280.301C122.474 279.655 117.193 280.157 112.206 281.771C107.219 283.385 102.647 286.072 98.8101 289.642C94.8374 293.295 91.7157 297.776 89.6658 302.768C87.616 307.76 86.688 313.141 86.9473 318.531Z" fill="#D4D4D4"/>
<path d="M186.259 412.491C184.777 412.031 183.422 411.231 182.304 410.154C181.185 409.078 180.334 407.755 179.818 406.292C179.302 404.828 179.135 403.264 179.331 401.724C179.526 400.185 180.08 398.712 180.946 397.424L159.688 369.165L178.032 368.03L195.406 395.04C197.266 396.477 198.561 398.524 199.062 400.82C199.564 403.117 199.241 405.516 198.149 407.598C197.058 409.68 195.268 411.311 193.094 412.206C190.92 413.101 188.5 413.202 186.259 412.491Z" fill="#FFB8B8"/>
<path d="M171.313 392.31C170.75 392.082 170.238 391.744 169.806 391.316C169.374 390.888 169.032 390.379 168.798 389.818L136.772 313.535C136.144 312.041 135.816 310.439 135.808 308.818C135.799 307.198 136.11 305.592 136.723 304.092C137.335 302.592 138.237 301.227 139.378 300.076C140.518 298.925 141.874 298.009 143.369 297.382C144.863 296.755 146.467 296.429 148.087 296.421C149.708 296.414 151.314 296.726 152.814 297.34C154.314 297.953 155.679 298.856 156.829 299.997C157.98 301.138 158.895 302.495 159.521 303.99L191.547 380.274C192.02 381.405 192.025 382.678 191.561 383.812C191.097 384.947 190.202 385.852 189.072 386.328L174.854 392.293C174.294 392.53 173.693 392.654 173.085 392.657C172.477 392.66 171.875 392.542 171.313 392.31Z" fill="#D4D4D4"/>
<path d="M119.604 389.62L150.364 330.737C150.958 329.604 151.976 328.753 153.196 328.371C154.416 327.988 155.738 328.105 156.872 328.695L201.52 352.007C202.653 352.6 203.504 353.618 203.887 354.838C204.27 356.058 204.153 357.379 203.562 358.513L172.802 417.396C172.209 418.528 171.191 419.379 169.971 419.762C168.751 420.145 167.429 420.028 166.295 419.438L121.647 396.125C120.514 395.532 119.663 394.514 119.28 393.295C118.897 392.075 119.014 390.753 119.604 389.62Z" fill="#F1E8E8"/>
<path d="M140.233 362.718C139.686 361.265 138.807 359.961 137.667 358.908C136.526 357.855 135.155 357.084 133.663 356.655C132.171 356.226 130.599 356.152 129.074 356.439C127.548 356.725 126.11 357.364 124.875 358.304L95.4029 338.758L95.3528 357.132L123.348 372.877C124.893 374.648 127.013 375.819 129.336 376.184C131.658 376.549 134.035 376.085 136.05 374.873C138.064 373.661 139.588 371.778 140.352 369.556C141.117 367.333 141.075 364.912 140.233 362.718Z" fill="#FFB8B8"/>
<path d="M102.97 366.85L78.8829 347.775C76.2772 346.9 73.9227 345.406 72.0216 343.422C70.1204 341.437 68.7294 339.021 67.968 336.38C67.2065 333.74 67.0973 330.954 67.6498 328.262C68.2022 325.57 69.3999 323.052 71.1399 320.925L93.01 292.27C94.5298 290.413 96.6672 289.166 99.0315 288.755C101.396 288.344 103.829 288.797 105.887 290.032C107.944 291.267 109.488 293.201 110.237 295.48C110.985 297.76 110.888 300.232 109.964 302.446L92.6595 330.745L118.09 342.804C118.681 343.085 119.206 343.487 119.63 343.985C120.054 344.484 120.368 345.066 120.55 345.695C120.732 346.323 120.779 346.983 120.687 347.631C120.596 348.279 120.367 348.9 120.018 349.453L109.752 365.694C109.405 366.243 108.947 366.712 108.407 367.072C107.867 367.432 107.258 367.674 106.618 367.783C106.593 367.788 106.567 367.792 106.542 367.796C105.913 367.89 105.272 367.855 104.658 367.693C104.043 367.53 103.469 367.243 102.97 366.85Z" fill="#D4D4D4"/>
<path d="M109.051 263.405C108.947 263.1 108.914 262.775 108.955 262.455C108.995 262.136 109.109 261.829 109.286 261.56C109.463 261.291 109.7 261.066 109.978 260.902C110.256 260.738 110.567 260.64 110.889 260.616C111.547 260.651 112.191 260.82 112.783 261.112C113.374 261.404 113.9 261.812 114.329 262.313C115.209 263.327 116.233 264.206 117.369 264.922C118.545 265.515 120.139 265.43 120.81 264.3C121.439 263.239 121.008 261.819 120.627 260.586C119.657 257.451 119.115 254.199 119.014 250.919C118.904 247.258 119.421 243.437 121.448 240.581C124.065 236.895 128.744 235.496 133.172 235.598C137.6 235.699 141.956 237.066 146.342 237.929C147.857 238.228 149.637 238.38 150.649 237.207C151.726 235.959 151.331 233.94 150.873 232.256C149.684 227.885 148.423 223.366 145.661 219.836C142.675 216.167 138.41 213.767 133.724 213.117C129.226 212.56 124.659 213.078 120.4 214.629C113.461 216.816 107.355 221.068 102.899 226.818C98.3055 232.933 96.3206 240.617 97.3784 248.191C98.4118 254.788 101.908 260.747 107.163 264.868L109.051 263.405Z" fill="#2F0C0C"/>
<path d="M416.931 576.65C410.464 573.834 404.74 569.553 400.21 564.147C395.681 558.74 392.47 552.355 390.832 545.495C389.194 538.636 389.172 531.489 390.77 524.62C392.367 517.751 395.539 511.346 400.036 505.913C394.822 509.719 390.478 514.59 387.291 520.203C384.104 525.816 382.147 532.042 381.551 538.469C380.955 544.896 381.733 551.376 383.834 557.479C385.934 563.582 389.309 569.169 393.734 573.868C398.159 578.568 403.534 582.272 409.5 584.737C415.467 587.201 421.89 588.368 428.343 588.161C434.795 587.954 441.13 586.377 446.926 583.535C452.723 580.693 457.848 576.651 461.963 571.678C455.545 576.367 448.011 579.294 440.11 580.166C432.209 581.038 424.218 579.826 416.931 576.65Z" fill="#F1E8E8"/>
</g>
<defs>
<clipPath id="clip0_149_1195">
<rect width="836" height="589" fill="white"/>
</clipPath>
</defs>
</svg>
